<svg viewBox="0 0 22 21" fill="none" xmlns="http://www.w3.org/2000/svg">
<path d="M20.4998 3H18.3332V4.33333H20.3332V19H1.66651V4.33333H3.66651V3H1.49985C1.344 3.0026 1.1902 3.03588 1.04722 3.09794C0.904246 3.15999 0.774893 3.24961 0.666554 3.36166C0.558214 3.47371 0.473011 3.60601 0.41581 3.751C0.358609 3.89599 0.330531 4.05083 0.333179 4.20667V19.1267C0.330531 19.2825 0.358609 19.4373 0.41581 19.5823C0.473011 19.7273 0.558214 19.8596 0.666554 19.9717C0.774893 20.0837 0.904246 20.1733 1.04722 20.2354C1.1902 20.2974 1.344 20.3307 1.49985 20.3333H20.4998C20.6557 20.3307 20.8095 20.2974 20.9525 20.2354C21.0954 20.1733 21.2248 20.0837 21.3331 19.9717C21.4415 19.8596 21.5267 19.7273 21.5839 19.5823C21.6411 19.4373 21.6692 19.2825 21.6665 19.1267V4.20667C21.6692 4.05083 21.6411 3.89599 21.5839 3.751C21.5267 3.60601 21.4415 3.47371 21.3331 3.36166C21.2248 3.24961 21.0954 3.15999 20.9525 3.09794C20.8095 3.03588 20.6557 3.0026 20.4998 3Z" fill="#3D3D3D"/>
<path d="M4.33301 8.33325H5.66634V9.66659H4.33301V8.33325Z" fill="#3D3D3D"/>
<path d="M8.33301 8.33325H9.66634V9.66659H8.33301V8.33325Z" fill="#3D3D3D"/>
<path d="M12.333 8.33325H13.6663V9.66659H12.333V8.33325Z" fill="#3D3D3D"/>
<path d="M16.333 8.33325H17.6663V9.66659H16.333V8.33325Z" fill="#3D3D3D"/>
<path d="M4.33301 11.6667H5.66634V13.0001H4.33301V11.6667Z" fill="#3D3D3D"/>
<path d="M8.33301 11.6667H9.66634V13.0001H8.33301V11.6667Z" fill="#3D3D3D"/>
<path d="M12.333 11.6667H13.6663V13.0001H12.333V11.6667Z" fill="#3D3D3D"/>
<path d="M16.333 11.6667H17.6663V13.0001H16.333V11.6667Z" fill="#3D3D3D"/>
<path d="M4.33301 15H5.66634V16.3333H4.33301V15Z" fill="#3D3D3D"/>
<path d="M8.33301 15H9.66634V16.3333H8.33301V15Z" fill="#3D3D3D"/>
<path d="M12.333 15H13.6663V16.3333H12.333V15Z" fill="#3D3D3D"/>
<path d="M16.333 15H17.6663V16.3333H16.333V15Z" fill="#3D3D3D"/>
<path d="M5.66667 5.66659C5.84348 5.66659 6.01305 5.59635 6.13807 5.47132C6.2631 5.3463 6.33333 5.17673 6.33333 4.99992V0.999919C6.33333 0.823108 6.2631 0.653538 6.13807 0.528514C6.01305 0.40349 5.84348 0.333252 5.66667 0.333252C5.48986 0.333252 5.32029 0.40349 5.19526 0.528514C5.07024 0.653538 5 0.823108 5 0.999919V4.99992C5 5.17673 5.07024 5.3463 5.19526 5.47132C5.32029 5.59635 5.48986 5.66659 5.66667 5.66659Z" fill="#3D3D3D"/>
<path d="M16.3337 5.66659C16.5105 5.66659 16.68 5.59635 16.8051 5.47132C16.9301 5.3463 17.0003 5.17673 17.0003 4.99992V0.999919C17.0003 0.823108 16.9301 0.653538 16.8051 0.528514C16.68 0.40349 16.5105 0.333252 16.3337 0.333252C16.1568 0.333252 15.9873 0.40349 15.8623 0.528514C15.7372 0.653538 15.667 0.823108 15.667 0.999919V4.99992C15.667 5.17673 15.7372 5.3463 15.8623 5.47132C15.9873 5.59635 16.1568 5.66659 16.3337 5.66659Z" fill="#3D3D3D"/>
<path d="M7.66699 3H14.3337V4.33333H7.66699V3Z" fill="#3D3D3D"/>
</svg>
