<svg width="44" height="40" viewBox="0 0 44 40" fill="none" xmlns="http://www.w3.org/2000/svg">
<g clip-path="url(#clip0_54_1037)">
<path d="M19.2781 0H24.0559C25.3772 0 26.4448 1.11719 26.4448 2.5V7.5C26.4448 8.88281 25.3772 10 24.0559 10H19.2781C17.9567 10 16.8892 8.88281 16.8892 7.5V2.5C16.8892 1.11719 17.9567 0 19.2781 0ZM4.94477 5H14.5003V8.75C14.5003 10.8203 16.1054 12.5 18.0837 12.5H25.2503C27.2286 12.5 28.8337 10.8203 28.8337 8.75V5H38.3892C41.0245 5 43.167 7.24219 43.167 10V35C43.167 37.7578 41.0245 40 38.3892 40H4.94477C2.30953 40 0.166992 37.7578 0.166992 35V10C0.166992 7.24219 2.30953 5 4.94477 5ZM13.3059 34.1641C13.3059 34.625 13.6642 35 14.1047 35H29.2293C29.6698 35 30.0281 34.625 30.0281 34.1641C30.0281 31.8594 28.2439 30 26.0491 30H17.2849C15.0826 30 13.3059 31.8672 13.3059 34.1641ZM21.667 27.5C22.9341 27.5 24.1494 26.9732 25.0454 26.0355C25.9414 25.0979 26.4448 23.8261 26.4448 22.5C26.4448 21.1739 25.9414 19.9021 25.0454 18.9645C24.1494 18.0268 22.9341 17.5 21.667 17.5C20.3998 17.5 19.1846 18.0268 18.2886 18.9645C17.3926 19.9021 16.8892 21.1739 16.8892 22.5C16.8892 23.8261 17.3926 25.0979 18.2886 26.0355C19.1846 26.9732 20.3998 27.5 21.667 27.5Z" fill="#046F67"/>
</g>
<defs>
<clipPath id="clip0_54_1037">
<rect width="43" height="40" fill="white" transform="translate(0.166992)"/>
</clipPath>
</defs>
</svg>
