<svg width="44" height="36" viewBox="0 0 44 36" fill="none" xmlns="http://www.w3.org/2000/svg">
<path d="M15.7193 18.1667C18.0006 18.1667 20.1883 17.2449 21.8014 15.6039C23.4145 13.963 24.3207 11.7374 24.3207 9.41675C24.3207 7.0961 23.4145 4.87051 21.8014 3.22956C20.1883 1.58862 18.0006 0.666748 15.7193 0.666748C13.4381 0.666748 11.2503 1.58862 9.63728 3.22956C8.02421 4.87051 7.118 7.0961 7.118 9.41675C7.118 11.7374 8.02421 13.963 9.63728 15.6039C11.2503 17.2449 13.4381 18.1667 15.7193 18.1667ZM12.6484 21.448C6.02939 21.448 0.666992 26.9031 0.666992 33.6365C0.666992 34.7576 1.56073 35.6667 2.66277 35.6667H22.3585C22.1502 35.0652 22.1099 34.4089 22.2644 33.7664L23.2724 29.658C23.4606 28.8855 23.8503 28.1882 24.4013 27.6277L27.1094 24.8728C24.9524 22.7537 22.0225 21.448 18.7836 21.448H12.6484ZM41.9131 16.7791C40.8648 15.7126 39.1647 15.7126 38.1097 16.7791L36.1341 18.7888L40.9052 23.6423L42.8808 21.6326C43.9291 20.5662 43.9291 18.8367 42.8808 17.7634L41.9131 16.7791ZM25.9267 29.1726C25.6512 29.4529 25.4563 29.8015 25.3623 30.1912L24.3543 34.2996C24.2602 34.6755 24.3677 35.0652 24.6365 35.3386C24.9053 35.6121 25.2883 35.7214 25.6579 35.6257L29.6965 34.6003C30.0728 34.5046 30.4223 34.3064 30.6978 34.0261L39.3798 25.1873L34.6087 20.3337L25.9267 29.1726Z" fill="#D6E1E0"/>
</svg>
