<svg width="20" height="22" viewBox="0 0 20 22" fill="none" xmlns="http://www.w3.org/2000/svg">
<path d="M10 11C11.5155 11 12.969 10.4205 14.0406 9.38909C15.1122 8.35764 15.7143 6.95869 15.7143 5.5C15.7143 4.04131 15.1122 2.64236 14.0406 1.61091C12.969 0.579463 11.5155 0 10 0C8.48448 0 7.03103 0.579463 5.95939 1.61091C4.88775 2.64236 4.28571 4.04131 4.28571 5.5C4.28571 6.95869 4.88775 8.35764 5.95939 9.38909C7.03103 10.4205 8.48448 11 10 11ZM5.71429 13.3719C2.41071 14.3043 0 17.2434 0 20.7238C0 21.4285 0.59375 22 1.32589 22H18.6741C19.4062 22 20 21.4285 20 20.7238C20 17.2434 17.5893 14.3043 14.2857 13.3719V15.5547C15.5179 15.8598 16.4286 16.9383 16.4286 18.2188V19.9375C16.4286 20.3156 16.1071 20.625 15.7143 20.625H15C14.6071 20.625 14.2857 20.3156 14.2857 19.9375C14.2857 19.5594 14.6071 19.25 15 19.25V18.2188C15 17.4582 14.3616 16.8438 13.5714 16.8438C12.7812 16.8438 12.1429 17.4582 12.1429 18.2188V19.25C12.5357 19.25 12.8571 19.5594 12.8571 19.9375C12.8571 20.3156 12.5357 20.625 12.1429 20.625H11.4286C11.0357 20.625 10.7143 20.3156 10.7143 19.9375V18.2188C10.7143 16.9383 11.625 15.8598 12.8571 15.5547V13.1012C12.5893 13.0754 12.317 13.0625 12.0402 13.0625H7.95982C7.68304 13.0625 7.41071 13.0754 7.14286 13.1012V15.9113C8.17411 16.2078 8.92857 17.1273 8.92857 18.2188C8.92857 19.5465 7.80804 20.625 6.42857 20.625C5.04911 20.625 3.92857 19.5465 3.92857 18.2188C3.92857 17.1273 4.68304 16.2078 5.71429 15.9113V13.3719ZM6.42857 19.25C6.71273 19.25 6.98525 19.1413 7.18619 18.948C7.38712 18.7546 7.5 18.4923 7.5 18.2188C7.5 17.9452 7.38712 17.6829 7.18619 17.4895C6.98525 17.2962 6.71273 17.1875 6.42857 17.1875C6.14441 17.1875 5.87189 17.2962 5.67096 17.4895C5.47003 17.6829 5.35714 17.9452 5.35714 18.2188C5.35714 18.4923 5.47003 18.7546 5.67096 18.948C5.87189 19.1413 6.14441 19.25 6.42857 19.25Z" fill="#046F67"/>
</svg>
