<svg width="20" height="20" viewBox="0 0 20 20" fill="none" xmlns="http://www.w3.org/2000/svg">
<path d="M2 20C1.45 20 0.979333 19.8043 0.588 19.413C0.196667 19.0217 0.000666667 18.5507 0 18V6C0 5.45 0.196 4.97933 0.588 4.588C0.98 4.19667 1.45067 4.00067 2 4H6V2C6 1.45 6.196 0.979333 6.588 0.588C6.98 0.196667 7.45067 0.000666667 8 0H12C12.55 0 13.021 0.196 13.413 0.588C13.805 0.98 14.0007 1.45067 14 2V4H18C18.55 4 19.021 4.196 19.413 4.588C19.805 4.98 20.0007 5.45067 20 6V18C20 18.55 19.8043 19.021 19.413 19.413C19.0217 19.805 18.5507 20.0007 18 20H2ZM2 18H18V6H2V18ZM8 4H12V2H8V4ZM9 13V16H11V13H14V11H11V8H9V11H6V13H9Z" fill="#3D3D3D"/>
</svg>
