<svg width="24" height="24" viewBox="0 0 24 24" fill="none" xmlns="http://www.w3.org/2000/svg">
<path d="M21.4998 4H19.3332V5.33333H21.3332V20H2.66651V5.33333H4.66651V4H2.49985C2.344 4.0026 2.1902 4.03588 2.04722 4.09794C1.90425 4.15999 1.77489 4.24961 1.66655 4.36166C1.55821 4.47371 1.47301 4.60601 1.41581 4.751C1.35861 4.89599 1.33053 5.05083 1.33318 5.20667V20.1267C1.33053 20.2825 1.35861 20.4373 1.41581 20.5823C1.47301 20.7273 1.55821 20.8596 1.66655 20.9717C1.77489 21.0837 1.90425 21.1733 2.04722 21.2354C2.1902 21.2974 2.344 21.3307 2.49985 21.3333H21.4998C21.6557 21.3307 21.8095 21.2974 21.9525 21.2354C22.0954 21.1733 22.2248 21.0837 22.3331 20.9717C22.4415 20.8596 22.5267 20.7273 22.5839 20.5823C22.6411 20.4373 22.6692 20.2825 22.6665 20.1267V5.20667C22.6692 5.05083 22.6411 4.89599 22.5839 4.751C22.5267 4.60601 22.4415 4.47371 22.3331 4.36166C22.2248 4.24961 22.0954 4.15999 21.9525 4.09794C21.8095 4.03588 21.6557 4.0026 21.4998 4Z" fill="#3D3D3D"/>
<path d="M5.33301 9.33325H6.66634V10.6666H5.33301V9.33325Z" fill="#3D3D3D"/>
<path d="M9.33301 9.33325H10.6663V10.6666H9.33301V9.33325Z" fill="#3D3D3D"/>
<path d="M13.333 9.33325H14.6663V10.6666H13.333V9.33325Z" fill="#3D3D3D"/>
<path d="M17.333 9.33325H18.6663V10.6666H17.333V9.33325Z" fill="#3D3D3D"/>
<path d="M5.33301 12.6667H6.66634V14.0001H5.33301V12.6667Z" fill="#3D3D3D"/>
<path d="M9.33301 12.6667H10.6663V14.0001H9.33301V12.6667Z" fill="#3D3D3D"/>
<path d="M13.333 12.6667H14.6663V14.0001H13.333V12.6667Z" fill="#3D3D3D"/>
<path d="M17.333 12.6667H18.6663V14.0001H17.333V12.6667Z" fill="#3D3D3D"/>
<path d="M5.33301 16H6.66634V17.3333H5.33301V16Z" fill="#3D3D3D"/>
<path d="M9.33301 16H10.6663V17.3333H9.33301V16Z" fill="#3D3D3D"/>
<path d="M13.333 16H14.6663V17.3333H13.333V16Z" fill="#3D3D3D"/>
<path d="M17.333 16H18.6663V17.3333H17.333V16Z" fill="#3D3D3D"/>
<path d="M6.66667 6.66659C6.84348 6.66659 7.01305 6.59635 7.13807 6.47132C7.2631 6.3463 7.33333 6.17673 7.33333 5.99992V1.99992C7.33333 1.82311 7.2631 1.65354 7.13807 1.52851C7.01305 1.40349 6.84348 1.33325 6.66667 1.33325C6.48986 1.33325 6.32029 1.40349 6.19526 1.52851C6.07024 1.65354 6 1.82311 6 1.99992V5.99992C6 6.17673 6.07024 6.3463 6.19526 6.47132C6.32029 6.59635 6.48986 6.66659 6.66667 6.66659Z" fill="#3D3D3D"/>
<path d="M17.3337 6.66659C17.5105 6.66659 17.68 6.59635 17.8051 6.47132C17.9301 6.3463 18.0003 6.17673 18.0003 5.99992V1.99992C18.0003 1.82311 17.9301 1.65354 17.8051 1.52851C17.68 1.40349 17.5105 1.33325 17.3337 1.33325C17.1568 1.33325 16.9873 1.40349 16.8623 1.52851C16.7372 1.65354 16.667 1.82311 16.667 1.99992V5.99992C16.667 6.17673 16.7372 6.3463 16.8623 6.47132C16.9873 6.59635 17.1568 6.66659 17.3337 6.66659Z" fill="#3D3D3D"/>
<path d="M8.66699 4H15.3337V5.33333H8.66699V4Z" fill="#3D3D3D"/>
</svg>
