<svg viewBox="0 0 18 22" fill="none" xmlns="http://www.w3.org/2000/svg">
<path d="M11.25 14.75H6.75C6.15326 14.75 5.58097 14.9871 5.15901 15.409C4.73705 15.831 4.5 16.4033 4.5 17V18.5H6V17C6 16.8011 6.07902 16.6103 6.21967 16.4697C6.36032 16.329 6.55109 16.25 6.75 16.25H11.25C11.4489 16.25 11.6397 16.329 11.7803 16.4697C11.921 16.6103 12 16.8011 12 17V18.5H13.5V17C13.5 16.4033 13.2629 15.831 12.841 15.409C12.419 14.9871 11.8467 14.75 11.25 14.75ZM9 14C9.59334 14 10.1734 13.8241 10.6667 13.4944C11.1601 13.1648 11.5446 12.6962 11.7716 12.1481C11.9987 11.5999 12.0581 10.9967 11.9424 10.4147C11.8266 9.83279 11.5409 9.29824 11.1213 8.87868C10.7018 8.45912 10.1672 8.1734 9.58527 8.05765C9.00333 7.94189 8.40013 8.0013 7.85195 8.22836C7.30377 8.45543 6.83524 8.83994 6.50559 9.33329C6.17595 9.82664 6 10.4067 6 11C6 11.7957 6.31607 12.5587 6.87868 13.1213C7.44129 13.6839 8.20435 14 9 14ZM9 9.5C9.29667 9.5 9.58668 9.58798 9.83336 9.7528C10.08 9.91762 10.2723 10.1519 10.3858 10.426C10.4994 10.7001 10.5291 11.0017 10.4712 11.2926C10.4133 11.5836 10.2704 11.8509 10.0607 12.0607C9.85088 12.2704 9.58361 12.4133 9.29264 12.4712C9.00166 12.5291 8.70006 12.4994 8.42598 12.3858C8.15189 12.2723 7.91762 12.08 7.7528 11.8334C7.58797 11.5867 7.5 11.2967 7.5 11C7.5 10.6022 7.65804 10.2206 7.93934 9.93934C8.22064 9.65804 8.60218 9.5 9 9.5Z" fill="#3D3D3D"/>
<path d="M15.75 2.75H13.5V2C13.5 1.60218 13.342 1.22064 13.0607 0.93934C12.7794 0.658035 12.3978 0.5 12 0.5H6C5.60218 0.5 5.22064 0.658035 4.93934 0.93934C4.65804 1.22064 4.5 1.60218 4.5 2V2.75H2.25C1.85218 2.75 1.47064 2.90804 1.18934 3.18934C0.908035 3.47064 0.75 3.85218 0.75 4.25V20C0.75 20.3978 0.908035 20.7794 1.18934 21.0607C1.47064 21.342 1.85218 21.5 2.25 21.5H15.75C16.1478 21.5 16.5294 21.342 16.8107 21.0607C17.092 20.7794 17.25 20.3978 17.25 20V4.25C17.25 3.85218 17.092 3.47064 16.8107 3.18934C16.5294 2.90804 16.1478 2.75 15.75 2.75ZM6 2H12V5H6V2ZM15.75 20H2.25V4.25H4.5V6.5H13.5V4.25H15.75V20Z" fill="#3D3D3D"/>
</svg>
