<svg width="18" height="22" viewBox="0 0 18 22" fill="none" xmlns="http://www.w3.org/2000/svg">
<path fill-rule="evenodd" clip-rule="evenodd" d="M6.94513 11.25L7 11.25C7.19891 11.25 7.38968 11.329 7.53033 11.4697L9 12.9393L10.4697 11.4697C10.6103 11.329 10.8011 11.25 11 11.25L11.0549 11.25C11.7173 11.25 12.3176 11.25 12.859 11.2632C12.9047 11.2545 12.9518 11.25 13 11.25C13.0642 11.25 13.1264 11.2581 13.1859 11.2732C13.63 11.2898 14.0312 11.3181 14.3917 11.3666C15.2917 11.4876 16.0497 11.7465 16.6513 12.3487C17.2535 12.9503 17.5124 13.7083 17.6334 14.6083C17.75 15.4753 17.75 16.5777 17.75 17.9451V21C17.75 21.4142 17.4142 21.75 17 21.75C16.5858 21.75 16.25 21.4142 16.25 21V18C16.25 16.5648 16.2484 15.5636 16.1468 14.8082C16.0481 14.0743 15.8676 13.686 15.591 13.4096C15.3146 13.133 14.9257 12.9519 14.1918 12.8532C14.0532 12.8345 13.9063 12.8193 13.75 12.8068V17.5C13.75 17.9142 13.4142 18.25 13 18.25C12.5858 18.25 12.25 17.9142 12.25 17.5V12.7537C11.9604 12.751 11.6482 12.7503 11.3106 12.7501L9.53033 14.5303C9.23744 14.8232 8.76256 14.8232 8.46967 14.5303L6.68941 12.7501C5.41843 12.7508 4.50789 12.7591 3.80822 12.8532C3.07434 12.9519 2.68596 13.1324 2.40963 13.409C2.13299 13.6854 1.95188 14.0743 1.85318 14.8082C1.75159 15.5636 1.75 16.5648 1.75 18V21C1.75 21.4142 1.41421 21.75 1 21.75C0.585788 21.75 0.250001 21.4142 0.250001 21L0.250001 17.9451C0.24998 16.5777 0.249963 15.4753 0.366568 14.6083C0.487602 13.7083 0.746528 12.9503 1.34867 12.3487C1.9503 11.7465 2.70832 11.4876 3.60829 11.3666C4.47533 11.25 5.57775 11.25 6.94513 11.25Z" fill="#3D3D3D"/>
<path fill-rule="evenodd" clip-rule="evenodd" d="M7.3736 0.573512C7.88923 0.35993 8.44188 0.25 9 0.25C9.55812 0.25 10.1108 0.35993 10.6264 0.573512C11.142 0.787095 11.6106 1.10015 12.0052 1.4948C12.3999 1.88944 12.7129 2.35796 12.9265 2.8736C13.1401 3.38923 13.25 3.94188 13.25 4.5V5.5C13.25 6.05812 13.1401 6.61077 12.9265 7.1264C12.7129 7.64204 12.3999 8.11055 12.0052 8.5052C11.6106 8.89985 11.142 9.21291 10.6264 9.42649C10.1108 9.64007 9.55812 9.75 9 9.75C8.44188 9.75 7.88923 9.64007 7.3736 9.42649C6.85796 9.21291 6.38945 8.89985 5.9948 8.5052C5.60015 8.11055 5.28709 7.64204 5.07351 7.1264C4.85993 6.61077 4.75 6.05812 4.75 5.5V4.5C4.75 3.94188 4.85993 3.38923 5.07351 2.8736C5.28709 2.35796 5.60015 1.88944 5.9948 1.4948C6.38945 1.10015 6.85796 0.787095 7.3736 0.573512ZM9 1.75C8.63886 1.75 8.28127 1.82113 7.94762 1.95933C7.61398 2.09753 7.31082 2.3001 7.05546 2.55546C6.8001 2.81082 6.59753 3.11398 6.45933 3.44762C6.32113 3.78127 6.25 4.13886 6.25 4.5V5.5C6.25 5.86114 6.32113 6.21873 6.45933 6.55238C6.59753 6.88602 6.80009 7.18918 7.05546 7.44454C7.31082 7.6999 7.61398 7.90247 7.94762 8.04067C8.28127 8.17887 8.63886 8.25 9 8.25C9.36114 8.25 9.71873 8.17887 10.0524 8.04067C10.386 7.90247 10.6892 7.6999 10.9445 7.44454C11.1999 7.18918 11.4025 6.88602 11.5407 6.55238C11.6789 6.21873 11.75 5.86114 11.75 5.5V4.5C11.75 4.13886 11.6789 3.78127 11.5407 3.44762C11.4025 3.11398 11.1999 2.81082 10.9445 2.55546C10.6892 2.3001 10.386 2.09753 10.0524 1.95933C9.71873 1.82113 9.36114 1.75 9 1.75ZM5.5 11.25C5.91421 11.25 6.25 11.5858 6.25 12V15.3542C6.69755 15.4811 7.10976 15.7207 7.44454 16.0555C7.96027 16.5712 8.25 17.2707 8.25 18V19C8.25 19.4142 7.91421 19.75 7.5 19.75C7.08579 19.75 6.75 19.4142 6.75 19V18C6.75 17.6685 6.6183 17.3505 6.38388 17.1161C6.14946 16.8817 5.83152 16.75 5.5 16.75C5.16848 16.75 4.85054 16.8817 4.61612 17.1161C4.3817 17.3505 4.25 17.6685 4.25 18V19C4.25 19.4142 3.91421 19.75 3.5 19.75C3.08579 19.75 2.75 19.4142 2.75 19V18C2.75 17.2707 3.03973 16.5712 3.55546 16.0555C3.89024 15.7207 4.30245 15.4811 4.75 15.3542V12C4.75 11.5858 5.08579 11.25 5.5 11.25ZM11.9393 17.1893C12.2206 16.908 12.6022 16.75 13 16.75C13.3978 16.75 13.7794 16.908 14.0607 17.1893C14.342 17.4706 14.5 17.8522 14.5 18.25C14.5 18.6478 14.342 19.0294 14.0607 19.3107C13.7794 19.592 13.3978 19.75 13 19.75C12.6022 19.75 12.2206 19.592 11.9393 19.3107C11.658 19.0294 11.5 18.6478 11.5 18.25C11.5 17.8522 11.658 17.4706 11.9393 17.1893Z" fill="#3D3D3D"/>
</svg>
