<svg width="24" height="24" viewBox="0 0 24 24" fill="none" xmlns="http://www.w3.org/2000/svg">
<path d="M12.8247 0.67508C12.606 0.456364 12.3093 0.333496 11.9999 0.333496C11.6906 0.333496 11.3939 0.456364 11.1751 0.67508L0.675081 11.1751C0.51197 11.3382 0.400896 11.5461 0.3559 11.7724C0.310905 11.9987 0.334008 12.2332 0.42229 12.4463C0.510572 12.6595 0.660068 12.8417 0.851879 12.9699C1.04369 13.0981 1.26921 13.1665 1.49991 13.1666H2.66658V21.3332C2.66658 22.6201 3.71308 23.6666 4.99991 23.6666H18.9999C20.2867 23.6666 21.3332 22.6201 21.3332 21.3332V13.1666H22.4999C22.7309 13.1671 22.9568 13.099 23.1489 12.9709C23.3411 12.8428 23.4909 12.6604 23.5793 12.4471C23.6677 12.2337 23.6906 11.9989 23.6453 11.7724C23.6 11.5459 23.4884 11.338 23.3247 11.1751L12.8247 0.67508ZM19.0011 21.3332H4.99991V10.1496L11.9999 3.14958L18.9999 10.1496V15.4999L19.0011 21.3332Z" fill="#046F67"/>
<path d="M13.1668 9.66675H10.8335V13.1667H7.3335V15.5001H10.8335V19.0001H13.1668V15.5001H16.6668V13.1667H13.1668V9.66675Z" fill="#046F67"/>
</svg>
