<svg width="28" height="24" viewBox="0 0 28 24" fill="none" xmlns="http://www.w3.org/2000/svg">
<path d="M14.0002 10.125C12.7625 10.125 11.5755 9.63114 10.7003 8.75206C9.82516 7.87299 9.3335 6.6807 9.3335 5.4375C9.3335 4.1943 9.82516 3.00201 10.7003 2.12294C11.5755 1.24386 12.7625 0.75 14.0002 0.75C15.2378 0.75 16.4248 1.24386 17.3 2.12294C18.1752 3.00201 18.6668 4.1943 18.6668 5.4375C18.6668 6.6807 18.1752 7.87299 17.3 8.75206C16.4248 9.63114 15.2378 10.125 14.0002 10.125ZM14.0002 2.625C12.4508 2.625 11.2002 3.88125 11.2002 5.4375C11.2002 6.99375 12.4508 8.25 14.0002 8.25C15.5495 8.25 16.8002 6.99375 16.8002 5.4375C16.8002 3.88125 15.5495 2.625 14.0002 2.625Z" fill="#046F67"/>
<path d="M25.2 17.625C24.6773 17.625 24.2667 17.2125 24.2667 16.6875C24.2667 16.1625 24.6773 15.75 25.2 15.75C25.7227 15.75 26.1333 15.3375 26.1333 14.8125C26.1333 13.5693 25.6417 12.377 24.7665 11.4979C23.8913 10.6189 22.7043 10.125 21.4667 10.125H19.6C19.0773 10.125 18.6667 9.7125 18.6667 9.1875C18.6667 8.6625 19.0773 8.25 19.6 8.25C21.1493 8.25 22.4 6.99375 22.4 5.4375C22.4 3.88125 21.1493 2.625 19.6 2.625C19.0773 2.625 18.6667 2.2125 18.6667 1.6875C18.6667 1.1625 19.0773 0.75 19.6 0.75C20.8377 0.75 22.0247 1.24386 22.8998 2.12294C23.775 3.00201 24.2667 4.1943 24.2667 5.4375C24.2667 6.6 23.856 7.65 23.1467 8.475C25.928 9.225 28 11.775 28 14.8125C28 16.3687 26.7493 17.625 25.2 17.625ZM2.8 17.625C1.25067 17.625 0 16.3687 0 14.8125C0 11.775 2.05333 9.225 4.85333 8.475C4.16267 7.65 3.73333 6.6 3.73333 5.4375C3.73333 4.1943 4.225 3.00201 5.10017 2.12294C5.97534 1.24386 7.16232 0.75 8.4 0.75C8.92267 0.75 9.33333 1.1625 9.33333 1.6875C9.33333 2.2125 8.92267 2.625 8.4 2.625C6.85067 2.625 5.6 3.88125 5.6 5.4375C5.6 6.99375 6.85067 8.25 8.4 8.25C8.92267 8.25 9.33333 8.6625 9.33333 9.1875C9.33333 9.7125 8.92267 10.125 8.4 10.125H6.53333C5.29566 10.125 4.10867 10.6189 3.2335 11.4979C2.35833 12.377 1.86667 13.5693 1.86667 14.8125C1.86667 15.3375 2.27733 15.75 2.8 15.75C3.32267 15.75 3.73333 16.1625 3.73333 16.6875C3.73333 17.2125 3.32267 17.625 2.8 17.625ZM19.6 23.25H8.4C6.85067 23.25 5.6 21.9937 5.6 20.4375V18.5625C5.6 14.9438 8.53067 12 12.1333 12H15.8667C19.4693 12 22.4 14.9438 22.4 18.5625V20.4375C22.4 21.9937 21.1493 23.25 19.6 23.25ZM12.1333 13.875C10.8957 13.875 9.70867 14.3689 8.8335 15.2479C7.95833 16.127 7.46667 17.3193 7.46667 18.5625V20.4375C7.46667 20.9625 7.87733 21.375 8.4 21.375H19.6C20.1227 21.375 20.5333 20.9625 20.5333 20.4375V18.5625C20.5333 17.3193 20.0417 16.127 19.1665 15.2479C18.2913 14.3689 17.1043 13.875 15.8667 13.875H12.1333Z" fill="#046F67"/>
</svg>
