<svg width="1404" height="465" viewBox="0 0 1404 465" fill="none" xmlns="http://www.w3.org/2000/svg">
<path d="M1402 2.70893C1341.3 2.70893 1280.49 -3.68673 1226.7 21.9419C1193.21 37.8953 1171.53 62.7683 1152.73 88.6917C1129.02 121.392 1112.84 159.301 1075.65 183.725C1038.47 208.15 992.474 222.903 946.949 230.79C891.782 240.346 839.5 212.31 802.268 183.952C756.511 149.099 724.329 101.789 723.566 51.5834C723.312 34.9031 739.95 16.4549 763.213 14.3619C803.402 10.7459 809.266 102.666 810.256 120.596C811.557 144.144 813.348 169.557 803.747 192.324C783.744 239.759 687.9 256.761 673.333 259.356C658.767 261.952 559.552 281.392 463.412 293.523C367.272 305.655 256.202 298.648 160.291 322.486C111.67 334.571 60.8404 357.082 29.3681 388.444C5.23745 412.49 5.26762 434.262 2 463" stroke="url(#paint0_linear_1_464)" stroke-width="4" stroke-linecap="round" stroke-dasharray="12 12"/>
<defs>
<linearGradient id="paint0_linear_1_464" x1="2.41915" y1="388.737" x2="1246.8" y2="-219.568" gradientUnits="userSpaceOnUse">
<stop stop-color="#046F67" stop-opacity="0.42"/>
<stop offset="0.563099" stop-color="#046F67" stop-opacity="0.11"/>
<stop offset="0.887261" stop-color="#046F67" stop-opacity="0.6"/>
</linearGradient>
</defs>
</svg>
