<svg width="100" height="15" viewBox="0 0 100 15" fill="none" xmlns="http://www.w3.org/2000/svg">
<path d="M0.84544 13.8273C6.68151 15.4907 13.3647 15.3798 19.1537 13.5316C22.0247 12.6076 24.5192 11.203 27.1548 9.94624C29.6493 8.76343 32.2378 7.87632 35.2029 7.95025C38.3563 8.02417 41.3214 8.98521 44.3336 9.61358C45.8867 9.94624 47.4399 10.205 49.0401 10.3159C50.7344 10.4268 52.3817 10.3159 54.029 10.1311C57.3706 9.76142 60.6181 8.87431 63.9126 8.20898C67.2072 7.54365 70.5488 7.21099 73.9375 7.13706C81.8444 6.95225 89.7514 7.80239 97.6112 7.24794C98.2231 7.21098 98.7878 6.84135 98.7878 6.32387C98.7878 5.84336 98.2701 5.36284 97.6112 5.3998C90.5985 5.91728 83.6329 5.28892 76.6202 5.25195C73.1374 5.25195 69.6546 5.39981 66.2659 5.88033C62.9243 6.36084 59.6768 7.24795 56.3351 7.87632C53.2289 8.46772 50.0755 8.6895 46.9221 8.17202C43.8629 7.65454 40.9449 6.73047 37.8856 6.28692C36.3325 6.06514 34.7793 5.95425 33.2262 6.10211C31.6731 6.24996 30.167 6.61958 28.755 7.13706C26.0252 8.09809 23.672 9.53965 21.0834 10.6855C15.1532 13.3099 7.9052 13.7534 1.50435 11.9422C0.892502 11.7574 0.233592 12.127 0.0453314 12.5706C-0.142929 13.199 0.280659 13.6795 0.84544 13.8273Z" fill="#3D3D3D"/>
<path d="M87.259 1.70029C90.6477 2.99399 93.9422 4.47251 97.0956 6.06191C97.2839 6.13584 97.4251 6.24672 97.6133 6.32064C97.6604 6.32064 97.7074 6.39457 97.7074 6.39457C97.9428 6.43154 97.6133 6.43153 97.7074 6.35761L97.8016 6.02494L97.6604 6.09888C97.4721 6.13584 97.2368 6.24672 97.0485 6.32064C96.1072 6.65331 95.213 6.98598 94.2717 7.31864C92.4832 7.98398 90.6477 8.6493 88.8592 9.31464C86.7883 10.0539 84.7645 10.8301 82.6937 11.5694C82.1289 11.7911 81.9877 12.4195 82.2701 12.8261C82.5996 13.3066 83.3055 13.3805 83.8703 13.1588C87.9179 11.6803 91.9184 10.2017 95.966 8.72323C97.4721 8.16879 101.002 7.35561 99.7312 5.54443C99.2606 4.8791 98.2251 4.47251 97.425 4.06592C96.5308 3.62236 95.5895 3.17881 94.6953 2.77222C92.6244 1.81118 90.5065 0.924072 88.3415 0.110889C87.7767 -0.110888 87.0707 -1.66893e-06 86.7413 0.443553C86.506 0.850144 86.6472 1.47851 87.259 1.70029Z" fill="#3D3D3D"/>
</svg>
