<svg width="142" height="39" viewBox="0 0 142 39" fill="none" xmlns="http://www.w3.org/2000/svg">
<path fill-rule="evenodd" clip-rule="evenodd" d="M134.851 5.93668C136.824 3.81076 138.53 2.00944 142 2.00944V-0.00952148C137.615 -0.00952148 135.376 2.40253 133.416 4.51534L133.371 4.56325C131.398 6.68917 129.693 8.4905 126.222 8.4905C122.752 8.4905 121.046 6.68918 119.073 4.56326L119.029 4.51535C117.068 2.40253 114.83 -0.00952148 110.445 -0.00952148C106.059 -0.00952148 103.821 2.40253 101.86 4.51535L101.816 4.56325C99.8426 6.68918 98.1371 8.4905 94.6667 8.4905C91.1963 8.4905 89.4908 6.68917 87.5177 4.56325L87.4732 4.51534C85.5126 2.40253 83.2742 -0.00952148 78.8889 -0.00952148C74.5035 -0.00952148 72.2652 2.40255 70.3045 4.51538L70.2601 4.56326C68.287 6.68919 66.5815 8.4905 63.1113 8.4905C59.641 8.4905 57.9355 6.68919 55.9623 4.56324L55.918 4.51549C53.9573 2.40261 51.7188 -0.00952148 47.3331 -0.00952148C42.9478 -0.00952148 40.7095 2.40255 38.7489 4.51536L38.7045 4.56326C36.7314 6.68919 35.0259 8.4905 31.5556 8.4905C28.0854 8.4905 26.3799 6.68919 24.4068 4.56326L24.3624 4.51535C22.4017 2.40254 20.1634 -0.00952148 15.7782 -0.00952148C11.3925 -0.00952148 9.15402 2.4026 7.19324 4.51548L7.14893 4.56324C5.17578 6.68919 3.47029 8.4905 0 8.4905V10.5095C4.38519 10.5095 6.62352 8.09747 8.58418 5.9847L8.62872 5.93669C10.6018 3.81079 12.3075 2.00944 15.7782 2.00944C19.2484 2.00944 20.9539 3.81075 22.927 5.93667L22.9714 5.98457C24.932 8.09739 27.1703 10.5095 31.5556 10.5095C35.9409 10.5095 38.1792 8.0974 40.1398 5.98459L40.1843 5.93667C42.1573 3.81075 43.8628 2.00944 47.3331 2.00944C50.8038 2.00944 52.5094 3.81079 54.4825 5.93669L54.5271 5.98472C56.4878 8.09749 58.7261 10.5095 63.1113 10.5095C67.4965 10.5095 69.7348 8.09742 71.6954 5.98461L71.7399 5.93668C73.713 3.81076 75.4185 2.00944 78.8889 2.00944C82.3592 2.00944 84.0648 3.81076 86.0379 5.93668L86.0823 5.98458C88.043 8.0974 90.2814 10.5095 94.6667 10.5095C99.052 10.5095 101.29 8.09741 103.251 5.9846L103.295 5.93668C105.269 3.81076 106.974 2.00944 110.445 2.00944C113.915 2.00944 115.62 3.81075 117.593 5.93668L117.638 5.98458C119.599 8.0974 121.837 10.5095 126.222 10.5095C130.608 10.5095 132.846 8.0974 134.807 5.98459L134.851 5.93668Z" fill="url(#paint0_linear_1_2101)"/>
<path fill-rule="evenodd" clip-rule="evenodd" d="M134.851 20.2702C136.824 18.1444 138.53 16.3431 142 16.3431V14.3241C137.615 14.3241 135.376 16.7361 133.416 18.8489L133.371 18.8968C131.398 21.0227 129.693 22.824 126.222 22.824C122.752 22.824 121.046 21.0227 119.073 18.8968L119.029 18.8489C117.068 16.7361 114.83 14.3241 110.445 14.3241C106.059 14.3241 103.821 16.7361 101.86 18.8489L101.816 18.8968C99.8426 21.0227 98.1371 22.824 94.6667 22.824C91.1963 22.824 89.4908 21.0227 87.5177 18.8968L87.4732 18.8489C85.5126 16.7361 83.2742 14.3241 78.8889 14.3241C74.5035 14.3241 72.2652 16.7361 70.3045 18.8489L70.2601 18.8968C68.287 21.0227 66.5816 22.824 63.1113 22.824C59.641 22.824 57.9355 21.0227 55.9623 18.8968L55.918 18.849C53.9572 16.7362 51.7188 14.3241 47.3331 14.3241C42.9478 14.3241 40.7095 16.7361 38.7489 18.8489L38.7045 18.8968C36.7314 21.0227 35.0259 22.824 31.5556 22.824C28.0853 22.824 26.3798 21.0227 24.4068 18.8968L24.3624 18.8489C22.4017 16.7361 20.1634 14.3241 15.7782 14.3241C11.3925 14.3241 9.15399 16.7362 7.19324 18.8491L7.14893 18.8968C5.17578 21.0227 3.47029 22.824 0 22.824V24.843C4.38516 24.843 6.62347 22.431 8.58414 20.3183L8.62872 20.2703C10.6018 18.1444 12.3075 16.3431 15.7782 16.3431C19.2484 16.3431 20.9539 18.1443 22.927 20.2702L22.9714 20.3181C24.9321 22.4309 27.1704 24.843 31.5556 24.843C35.9409 24.843 38.1792 22.4309 40.1398 20.3182L40.1843 20.2702C42.1573 18.1443 43.8628 16.3431 47.3331 16.3431C50.8038 16.3431 52.5094 18.1444 54.4825 20.2703L54.5271 20.3183C56.4878 22.431 58.7261 24.843 63.1113 24.843C67.4965 24.843 69.7348 22.431 71.6955 20.3182L71.7399 20.2702C73.713 18.1444 75.4185 16.3431 78.8889 16.3431C82.3592 16.3431 84.0648 18.1444 86.0379 20.2702L86.0823 20.3181C88.043 22.4309 90.2814 24.843 94.6667 24.843C99.052 24.843 101.29 22.431 103.251 20.3182L103.295 20.2702C105.269 18.1444 106.974 16.3431 110.445 16.3431C113.915 16.3431 115.62 18.1444 117.593 20.2702L117.638 20.3181C119.599 22.4309 121.837 24.843 126.222 24.843C130.608 24.843 132.846 22.4309 134.807 20.3182C134.821 20.3022 134.836 20.2862 134.851 20.2702Z" fill="url(#paint1_linear_1_2101)"/>
<path fill-rule="evenodd" clip-rule="evenodd" d="M134.851 34.4368C136.824 32.3109 138.53 30.5096 142 30.5096V28.4906C137.615 28.4906 135.376 30.9026 133.416 33.0154L133.371 33.0633C131.398 35.1892 129.693 36.9905 126.222 36.9905C122.752 36.9905 121.046 35.1892 119.073 33.0633L119.029 33.0154C117.068 30.9026 114.83 28.4906 110.445 28.4906C106.059 28.4906 103.821 30.9026 101.86 33.0154L101.816 33.0633C99.8426 35.1892 98.1371 36.9905 94.6667 36.9905C91.1963 36.9905 89.4908 35.1892 87.5177 33.0633L87.4732 33.0154C85.5126 30.9026 83.2742 28.4906 78.8889 28.4906C74.5035 28.4906 72.2652 30.9026 70.3045 33.0154L70.2601 33.0633C68.287 35.1892 66.5816 36.9905 63.1113 36.9905C59.641 36.9905 57.9355 35.1892 55.9623 33.0633L55.918 33.0156C53.9572 30.9027 51.7188 28.4906 47.3331 28.4906C42.9478 28.4906 40.7095 30.9026 38.7489 33.0154L38.7045 33.0633C36.7314 35.1892 35.0259 36.9905 31.5556 36.9905C28.0853 36.9905 26.3798 35.1892 24.4068 33.0633L24.3624 33.0154C22.4017 30.9026 20.1634 28.4906 15.7782 28.4906C11.3925 28.4906 9.15399 30.9027 7.19324 33.0156L7.14893 33.0633C5.17578 35.1892 3.47029 36.9905 0 36.9905V39.0095C4.38516 39.0095 6.62347 36.5975 8.58414 34.4848L8.62872 34.4368C10.6018 32.3109 12.3075 30.5096 15.7782 30.5096C19.2484 30.5096 20.9539 32.3108 22.927 34.4367L22.9714 34.4846C24.9321 36.5974 27.1704 39.0095 31.5556 39.0095C35.9409 39.0095 38.1792 36.5974 40.1398 34.4847L40.1843 34.4367C42.1573 32.3108 43.8628 30.5096 47.3331 30.5096C50.8038 30.5096 52.5094 32.3109 54.4825 34.4368L54.5271 34.4848C56.4878 36.5975 58.7261 39.0095 63.1113 39.0095C67.4965 39.0095 69.7348 36.5975 71.6955 34.4847L71.7399 34.4367C73.713 32.3109 75.4185 30.5096 78.8889 30.5096C82.3592 30.5096 84.0648 32.3109 86.0379 34.4368L86.0823 34.4847C88.043 36.5974 90.2814 39.0095 94.6667 39.0095C99.052 39.0095 101.29 36.5975 103.251 34.4847L103.295 34.4368C105.269 32.3109 106.974 30.5096 110.445 30.5096C113.915 30.5096 115.62 32.3109 117.593 34.4367L117.638 34.4846C119.599 36.5974 121.837 39.0095 126.222 39.0095C130.608 39.0095 132.846 36.5974 134.807 34.4847C134.821 34.4687 134.836 34.4527 134.851 34.4368Z" fill="url(#paint2_linear_1_2101)"/>
<defs>
<linearGradient id="paint0_linear_1_2101" x1="132.485" y1="2.31679" x2="113.895" y2="50.3448" gradientUnits="userSpaceOnUse">
<stop offset="0.140185" stop-color="#0E948A"/>
<stop offset="1" stop-color="#C5EAE9"/>
</linearGradient>
<linearGradient id="paint1_linear_1_2101" x1="132.485" y1="16.6504" x2="113.895" y2="64.6781" gradientUnits="userSpaceOnUse">
<stop offset="0.140185" stop-color="#0E948A"/>
<stop offset="1" stop-color="#C5EAE9"/>
</linearGradient>
<linearGradient id="paint2_linear_1_2101" x1="132.485" y1="30.8169" x2="113.895" y2="78.8446" gradientUnits="userSpaceOnUse">
<stop offset="0.140185" stop-color="#0E948A"/>
<stop offset="1" stop-color="#C5EAE9"/>
</linearGradient>
</defs>
</svg>
