<svg width="104" height="106" viewBox="0 0 104 106" fill="none" xmlns="http://www.w3.org/2000/svg">
<path d="M90.6421 58.6846V47.8993C90.6421 46.7947 89.7467 45.8993 88.6421 45.8993H61.3467C60.2421 45.8993 59.3467 45.0038 59.3467 43.8993V16.7947C59.3467 15.6901 58.4513 14.7947 57.3467 14.7947H33.2953C32.1907 14.7947 31.2953 15.6901 31.2953 16.7947V44.0901C31.2953 45.1947 30.3999 46.0901 29.2953 46.0901H1.9999C0.895332 46.0901 -9.91821e-05 46.9855 -9.91821e-05 48.0901V72.1415C-9.91821e-05 73.246 0.895332 74.1415 1.9999 74.1415H29.2953C30.3999 74.1415 31.2953 75.0369 31.2953 76.1415V103.437C31.2953 104.541 32.1907 105.437 33.2953 105.437H57.3467C58.4513 105.437 59.3467 104.541 59.3467 103.437V76.1415C59.3467 75.0369 60.2421 74.1415 61.3467 74.1415H88.6421C89.7467 74.1415 90.6421 73.246 90.6421 72.1415V58.6846ZM82.7265 52.0057C83.8311 52.0057 84.7265 52.9011 84.7265 54.0057V66.035C84.7265 67.1396 83.8311 68.035 82.7265 68.035H55.4311C54.3265 68.035 53.4311 68.9305 53.4311 70.035V97.3304C53.4311 98.435 52.5357 99.3304 51.4311 99.3304H39.4017C38.2972 99.3304 37.4017 98.435 37.4017 97.3304V70.035C37.4017 68.9305 36.5063 68.035 35.4017 68.035H8.10632C7.00175 68.035 6.10632 67.1396 6.10632 66.035V54.0057C6.10632 52.9011 7.00175 52.0057 8.10632 52.0057H35.4017C36.5063 52.0057 37.4017 51.1103 37.4017 50.0057V22.7103C37.4017 21.6057 38.2972 20.7103 39.4017 20.7103H51.4311C52.5357 20.7103 53.4311 21.6057 53.4311 22.7103V50.0057C53.4311 51.1103 54.3265 52.0057 55.4311 52.0057H82.7265Z" fill="#1BA2BB" fill-opacity="0.5"/>
<path fill-rule="evenodd" clip-rule="evenodd" d="M104 33.1047V43.89V57.3469C104 58.4515 103.105 59.3469 102 59.3469H74.7047C73.6001 59.3469 72.7047 60.2423 72.7047 61.3469V88.6423C72.7047 89.7469 71.8093 90.6423 70.7047 90.6423H46.6533C45.5488 90.6423 44.6533 89.7469 44.6533 88.6423V61.3469C44.6533 60.2423 43.7579 59.3469 42.6533 59.3469H15.3579C14.2533 59.3469 13.3579 58.4515 13.3579 57.3469V33.2955C13.3579 32.1909 14.2533 31.2955 15.3579 31.2955H42.6533C43.7579 31.2955 44.6533 30.4001 44.6533 29.2955V2C44.6533 0.895431 45.5488 0 46.6533 0H70.7047C71.8093 0 72.7047 0.895434 72.7047 2V29.1047C72.7047 30.2092 73.6001 31.1047 74.7047 31.1047H102C103.105 31.1047 104 32.0001 104 33.1047Z" fill="url(#paint0_linear_1_2105)"/>
<defs>
<linearGradient id="paint0_linear_1_2105" x1="19.4319" y1="20.0459" x2="107.287" y2="36.8604" gradientUnits="userSpaceOnUse">
<stop offset="0.140185" stop-color="#0E948A"/>
<stop offset="1" stop-color="#C5EAE9"/>
</linearGradient>
</defs>
</svg>
